<?xml version="1.0" encoding="UTF-8"?>
<svg version="1.1" viewBox="0 0 2000 2000" xmlns="http://www.w3.org/2000/svg">
<g transform="translate(-.28443 -.28443)">
<svg width="2e3" height="2e3" data-background-color="#ffffff" viewBox="0 0 334 334" xmlns="http://www.w3.org/2000/svg" xmlns:xlink="http://www.w3.org/1999/xlink">
<g transform="translate(.0475 .0475)">
<svg width="333.9" height="333.9" viewBox="0 0 333.90454557049503 333.90454557049503">
<svg/>
<svg width="333.9" height="333.9" viewBox="0 0 333.90454557049503 333.90454557049503">
<g fill="#ee3e38" stroke="transparent">
<path d="m0 166.95c0-92.205 74.747-166.95 166.95-166.95s166.95 74.747 166.95 166.95c0 92.205-74.747 166.95-166.95 166.95-92.205 0-166.95-74.747-166.95-166.95zm166.95 156.28c86.308 0 156.27-69.966 156.28-156.28 0-86.308-69.966-156.27-156.28-156.27-86.308 0-156.27 69.966-156.27 156.27s69.966 156.27 156.27 156.28z" data-fill-palette-color="tertiary"/>
<ellipse cx="166.95" cy="166.95" rx="160.27" ry="160.27" stroke-width="0" data-fill-palette-color="tertiary"/>
</g>
<g transform="translate(100.93 71.173)">
<svg width="132.03" height="191.56" viewBox="0 0 132.0346318062891 191.55844122715712">
<svg width="132.03" height="191.56" viewBox="0 0 132.0346318062891 191.55844122715712">
<svg width="132.03" height="191.56" viewBox="0 0 132.0346318062891 191.55844122715712">
<svg width="132.03" height="191.56" viewBox="0 0 132.0346318062891 191.55844122715712">
<svg width="132.03" height="191.56" viewBox="0 0 132.0346318062891 191.55844122715712">
<svg width="132.03" height="191.56" viewBox="0 0 132.0346318062891 191.55844122715712">
<g>
<svg width="132.03" height="191.56" data-palette-color="#ffffff" viewBox="1.95 -34.65 24.400000000000002 35.4">
<path class="wordmark-text-0" d="m7.53-34.65h18.82v22.17q0 3.03-0.92 5.48-0.93 2.45-2.72 4.17-1.78 1.73-4.37 2.65-2.59 0.93-5.91 0.93-3.35 0-5.79-0.86-2.44-0.87-4.69-2.39l3.13-5.05q1.77 1.22 3.32 1.71t3.53 0.49q2.67 0 4.46-1.71 1.79-1.72 1.79-5.32v-16.27h-10.65v-6z" fill="#fff" data-fill-palette-color="quaternary"/>
</svg>
</g>
</svg>
</svg>
</svg>
</svg>
</svg>
</svg>
</g>
</svg>
</svg>
<rect width="333.9" height="333.9" fill="none" visibility="hidden"/>
</g>
</svg>
</g>
</svg>
