<svg xmlns="http://www.w3.org/2000/svg" version="1.1" xmlns:xlink="http://www.w3.org/1999/xlink" xmlns:svgjs="http://svgjs.dev/svgjs" width="2000" height="2000" viewBox="0 0 2000 2000"><g transform="matrix(1,0,0,1,-0.28443113772425477,-0.28443113772459583)"><svg viewBox="0 0 334 334" data-background-color="#ffffff" preserveAspectRatio="xMidYMid meet" height="2000" width="2000" xmlns="http://www.w3.org/2000/svg" xmlns:xlink="http://www.w3.org/1999/xlink"><g id="tight-bounds" transform="matrix(1,0,0,1,0.04749999999998522,0.04750000000001364)"><svg viewBox="0 0 333.90454557049503 333.90454557049503" height="333.90454557049503" width="333.90454557049503"><g><svg></svg></g><g><svg viewBox="0 0 333.90454557049503 333.90454557049503" height="333.90454557049503" width="333.90454557049503"><g><path d="M0 166.952c0-92.205 74.747-166.952 166.952-166.952 92.205 0 166.952 74.747 166.953 166.952 0 92.205-74.747 166.952-166.953 166.953-92.205 0-166.952-74.747-166.952-166.953zM166.952 323.227c86.308 0 156.274-69.966 156.275-156.275 0-86.308-69.966-156.274-156.275-156.274-86.308 0-156.274 69.966-156.274 156.274 0 86.308 69.966 156.274 156.274 156.275z" data-fill-palette-color="tertiary" fill="#ee3e38" stroke="transparent"></path><ellipse rx="160.27418187383762" ry="160.27418187383762" cx="166.95227278524752" cy="166.95227278524752" fill="#ee3e38" stroke="transparent" stroke-width="0" fill-opacity="1" data-fill-palette-color="tertiary"></ellipse></g><g transform="matrix(1,0,0,1,100.93495688210297,71.17305217166896)"><svg viewBox="0 0 132.0346318062891 191.55844122715712" height="191.55844122715712" width="132.0346318062891"><g><svg viewBox="0 0 132.0346318062891 191.55844122715712" height="191.55844122715712" width="132.0346318062891"><g><svg viewBox="0 0 132.0346318062891 191.55844122715712" height="191.55844122715712" width="132.0346318062891"><g><svg viewBox="0 0 132.0346318062891 191.55844122715712" height="191.55844122715712" width="132.0346318062891"><g id="textblocktransform"><svg viewBox="0 0 132.0346318062891 191.55844122715712" height="191.55844122715712" width="132.0346318062891" id="textblock"><g><svg viewBox="0 0 132.0346318062891 191.55844122715712" height="191.55844122715712" width="132.0346318062891"><g transform="matrix(1,0,0,1,0,0)"><svg width="132.0346318062891" viewBox="1.95 -34.65 24.400000000000002 35.4" height="191.55844122715712" data-palette-color="#ffffff"><path d="M7.53-34.65L26.35-34.65 26.35-12.48Q26.35-9.45 25.43-7 24.5-4.55 22.71-2.83 20.93-1.1 18.34-0.18 15.75 0.75 12.43 0.75L12.43 0.75Q9.08 0.75 6.64-0.11 4.2-0.98 1.95-2.5L1.95-2.5 5.08-7.55Q6.85-6.33 8.4-5.84 9.95-5.35 11.93-5.35L11.93-5.35Q14.6-5.35 16.39-7.06 18.18-8.78 18.18-12.38L18.18-12.38 18.18-28.65 7.53-28.65 7.53-34.65Z" opacity="1" transform="matrix(1,0,0,1,0,0)" fill="#ffffff" class="wordmark-text-0" data-fill-palette-color="quaternary" id="text-0"></path></svg></g></svg></g></svg></g></svg></g><g></g></svg></g></svg></g></svg></g></svg></g><defs></defs></svg><rect width="333.90454557049503" height="333.90454557049503" fill="none" stroke="none" visibility="hidden"></rect></g></svg></g></svg>